# xmcd
#
# Track frame offsets:
#	150
#	14226
#	27056
#	40809
#	54018
#	72136
#	86175
#	99205
#	111881
#	127546
#	141693
#	155001
#	168596
#	182433
#	196341
#	209354
#	222539
#	236574
#	248760
#	260850
#
# Disc length: 3649 seconds
# Revision: 3
# Processed by: cddbd v1.5.2PL0 Copyright (c) Steve Scherf et al.
# Submitted via: dBpowerAMP V12.0
#
DISCID=1f0e3f14
DTITLE=Various Artist - Blues Legends: 20 Classic Performances, Vol. 2
DYEAR=2003
DGENRE=Blues
TTITLE0=Muddy Waters - Rollin' and Tumblin'
TTITLE1=John Lee Hooker - House Rent Boogie
TTITLE2=Howlin' Wolf - Moaning at Midnight
TTITLE3=T-Bone Walker - Blues is a Woman
TTITLE4=John Lee Hooker - Prison Bound Blues
TTITLE5=John Lee Hooker - Wanderin' Blues
TTITLE6=Memphis Slim - Pacemaker Boogie
TTITLE7=Muddy Waters - Howling Wolf
TTITLE8=Muddy Waters - Honey Bee
TTITLE9=Pee Wee Crayton - Blues After Hours
TTITLE10=Sunnyland Slim - Machine Gun Blues
TTITLE11=Tampa Red - Don't You Lie to Me
TTITLE12=Arthur "Big Boy" Crudup - That's All Right Mama
TTITLE13=John Lee Hooker - Dirty Ground Hog Blues
TTITLE14=Memphis Slim - Old Taylor
TTITLE15=Big Joe Turner - Still in the Dark
TTITLE16=Roy Brown - Hard Luck Blues
TTITLE17=John Lee Hooker - Little Boy Blue
TTITLE18=Lowell Fulson - Blue Shadows Falling
TTITLE19=Big Maceo and Tampa Red - Worried Life Blues
EXTD=
EXTT0=
EXTT1=
EXTT2=
EXTT3=
EXTT4=
EXTT5=
EXTT6=
EXTT7=
EXTT8=
EXTT9=
EXTT10=
EXTT11=
EXTT12=
EXTT13=
EXTT14=
EXTT15=
EXTT16=
EXTT17=
EXTT18=
EXTT19=
PLAYORDER=
